<svg width="78" height="70" viewBox="0 0 78 70" fill="none" xmlns="http://www.w3.org/2000/svg">
<path d="M77.5451 34.3725C77.5451 29.2782 71.1655 24.4503 61.3844 21.4564C63.6415 11.4872 62.6383 3.55572 58.218 1.01639C57.1992 0.420747 56.0079 0.138599 54.7069 0.138599V3.63409C55.4279 3.63409 56.0079 3.77517 56.4938 4.04164C58.6256 5.26428 59.5504 9.91971 58.8294 15.9075C58.6569 17.3809 58.3748 18.9328 58.0299 20.5159C54.9577 19.7635 51.6032 19.1836 48.0764 18.8074C45.9603 15.9075 43.7658 13.2741 41.5557 10.9699C46.6657 6.22044 51.4622 3.61842 54.7225 3.61842V0.122925C50.412 0.122925 44.769 3.1952 39.0634 8.52465C33.3577 3.22655 27.7148 0.185624 23.4042 0.185624V3.68112C26.6489 3.68112 31.4611 6.26747 36.5711 10.9856C34.3766 13.2898 32.1821 15.9075 30.0973 18.8074C26.5548 19.1836 23.2004 19.7635 20.1281 20.5316C19.7676 18.9641 19.5011 17.4436 19.313 15.9859C18.5763 9.99809 19.4855 5.34265 21.6016 4.10434C22.0718 3.82219 22.6831 3.69679 23.4042 3.69679V0.201299C22.0875 0.201299 20.8962 0.483446 19.8617 1.07909C15.457 3.61842 14.4695 11.5342 16.7424 21.4721C6.9926 24.4817 0.644287 29.2938 0.644287 34.3725C0.644287 39.4668 7.02395 44.2947 16.8051 47.2886C14.5479 57.2578 15.5511 65.1893 19.9714 67.7286C20.9903 68.3242 22.1815 68.6064 23.4982 68.6064C27.8088 68.6064 33.4518 65.5341 39.1574 60.2047C44.8631 65.5028 50.506 68.5437 54.8166 68.5437C56.1333 68.5437 57.3246 68.2615 58.3591 67.6659C62.7637 65.1266 63.7513 57.2108 61.4784 47.2729C71.1968 44.279 77.5451 39.4511 77.5451 34.3725ZM57.1365 23.9174C56.5565 25.9394 55.8354 28.0242 55.0204 30.1089C54.3777 28.8549 53.7037 27.601 52.967 26.347C52.2459 25.093 51.4778 23.8703 50.7098 22.679C52.9356 23.0082 55.0831 23.4158 57.1365 23.9174ZM49.9574 40.6111C48.7347 42.7272 47.4808 44.7336 46.1797 46.5989C43.8442 46.8027 41.4773 46.9124 39.0947 46.9124C36.7278 46.9124 34.3609 46.8027 32.041 46.6146C30.74 44.7492 29.4703 42.7585 28.2477 40.6581C27.0564 38.6047 25.9749 36.5199 24.9873 34.4195C25.9592 32.3191 27.0564 30.2187 28.232 28.1652C29.4547 26.0491 30.7087 24.0428 32.0097 22.1775C34.3452 21.9737 36.7121 21.864 39.0947 21.864C41.4616 21.864 43.8285 21.9737 46.1484 22.1618C47.4494 24.0271 48.7191 26.0178 49.9417 28.1182C51.133 30.1716 52.2146 32.2564 53.2021 34.3568C52.2146 36.4572 51.133 38.5577 49.9574 40.6111ZM55.0204 38.5734C55.8668 40.6738 56.5879 42.7742 57.1835 44.812C55.1301 45.3135 52.967 45.7368 50.7255 46.0659C51.4935 44.859 52.2616 43.6207 52.9826 42.351C53.7037 41.097 54.3777 39.8273 55.0204 38.5734ZM39.1261 55.2984C37.6683 53.7936 36.2105 52.1164 34.7684 50.2825C36.1792 50.3452 37.6213 50.3922 39.079 50.3922C40.5525 50.3922 42.0102 50.3608 43.4366 50.2825C42.0259 52.1164 40.5681 53.7936 39.1261 55.2984ZM27.464 46.0659C25.2381 45.7368 23.0907 45.3292 21.0373 44.8276C21.6172 42.8056 22.3383 40.7208 23.1534 38.6361C23.796 39.89 24.4701 41.144 25.2068 42.398C25.9435 43.652 26.6959 44.8746 27.464 46.0659ZM39.0477 13.4466C40.5054 14.9513 41.9632 16.6286 43.4053 18.4625C41.9946 18.3998 40.5525 18.3528 39.0947 18.3528C37.6213 18.3528 36.1635 18.3841 34.7371 18.4625C36.1478 16.6286 37.6056 14.9513 39.0477 13.4466ZM27.4483 22.679C26.6802 23.886 25.9122 25.1243 25.1911 26.394C24.4701 27.648 23.796 28.902 23.1534 30.156C22.3069 28.0555 21.5859 25.9551 20.9903 23.9174C23.0437 23.4314 25.2068 23.0082 27.4483 22.679ZM13.2625 42.304C7.71365 39.9371 4.1241 36.8334 4.1241 34.3725C4.1241 31.9115 7.71365 28.7922 13.2625 26.441C14.6106 25.861 16.084 25.3438 17.6045 24.8579C18.4979 27.9301 19.6736 31.1278 21.1313 34.4038C19.6892 37.6642 18.5293 40.8462 17.6515 43.9028C16.0997 43.4169 14.6263 42.8839 13.2625 42.304ZM21.6956 64.7033C19.5638 63.4807 18.639 58.8253 19.3601 52.8375C19.5325 51.364 19.8146 49.8122 20.1595 48.2291C23.2318 48.9815 26.5862 49.5614 30.113 49.9376C32.2291 52.8375 34.4236 55.4709 36.6338 57.7751C31.5238 62.5245 26.7272 65.1266 23.4669 65.1266C22.7615 65.1109 22.1659 64.9698 21.6956 64.7033ZM58.8764 52.7591C59.6131 58.7469 58.7039 63.4023 56.5878 64.6406C56.1176 64.9228 55.5063 65.0482 54.7852 65.0482C51.5405 65.0482 46.7284 62.4618 41.6184 57.7437C43.8128 55.4395 46.0073 52.8218 48.0921 49.922C51.6346 49.5458 54.989 48.9658 58.0613 48.1977C58.4218 49.7809 58.704 51.3013 58.8764 52.7591ZM64.9112 42.304C63.5632 42.8839 62.0897 43.4012 60.5693 43.8871C59.6758 40.8149 58.5002 37.6172 57.0424 34.3411C58.4845 31.0808 59.6444 27.8988 60.5222 24.8422C62.074 25.3281 63.5475 25.861 64.9269 26.441C70.4758 28.8079 74.0653 31.9115 74.0653 34.3725C74.0496 36.8334 70.4601 39.9527 64.9112 42.304Z" fill="#61DAFB"/>
<path d="M39.0792 41.5359C43.0354 41.5359 46.2426 38.3288 46.2426 34.3725C46.2426 30.4163 43.0354 27.2091 39.0792 27.2091C35.1229 27.2091 31.9158 30.4163 31.9158 34.3725C31.9158 38.3288 35.1229 41.5359 39.0792 41.5359Z" fill="#61DAFB"/>
</svg>
